<?xml version="1.0" encoding="iso-8859-1"?>
<!-- Generator: Adobe Illustrator 19.0.0, SVG Export Plug-In . SVG Version: 6.00 Build 0)  -->
<svg version="1.1" id="Layer_1" xmlns="http://www.w3.org/2000/svg" xmlns:xlink="http://www.w3.org/1999/xlink" x="0px" y="0px"
	 viewBox="0 0 512 512" style="fill:#e27866" xml:space="preserve">
<g>
	<g>
		<g>
			<path d="M205.867,364.795c-5.754,0.608-15.501,1.389-27.658,1.389c-31.076,0-77.727-5.134-112.693-31.359
				C34.93,350.329,10.713,375.897,0,388.396c15.983,18.648,62.023,66.389,114.434,66.388c52.577,0,98.505-47.727,114.441-66.377
				C223.894,382.593,215.985,373.945,205.867,364.795z"/>
			<path d="M446.245,334.708c-34.981,26.324-81.723,31.476-112.845,31.476c-11.916,0-21.519-0.75-27.316-1.353
				c-10.091,9.129-17.982,17.757-22.959,23.564c15.982,18.648,62.018,66.389,114.43,66.388
				c52.578,0.001,98.508-47.726,114.445-66.375C501.269,375.884,476.952,350.206,446.245,334.708z"/>
			<path d="M198.416,340.733c0.055-0.718,0.109-1.48,0.164-2.27c-27.465-32.128-55.905-77.85-55.905-129.438
				c0-4.031,0.189-8.023,0.523-11.979C105.908,176.27,56.889,177.339,36.586,178.9c-1.886,24.489-3.088,90.803,33.973,127.861
				C107.615,343.819,173.925,342.617,198.416,340.733z"/>
			<path d="M313.088,339.308c0.034,0.48,0.068,0.974,0.102,1.426c24.474,1.885,90.793,3.092,127.855-33.972
				c37.179-37.176,35.908-103.403,33.99-127.859c-20.149-1.554-68.666-2.629-105.873,17.723c0.357,4.093,0.556,8.224,0.556,12.398
				C369.718,261.067,340.775,307.139,313.088,339.308z"/>
			<path d="M256.194,57.217c-22.488,18.886-88.917,80.701-88.917,151.809c0,71.11,66.429,132.927,88.917,151.811
				c22.479-18.876,88.922-80.696,88.922-151.811C345.116,137.918,278.683,76.101,256.194,57.217z"/>
		</g>
	</g>
</g>
<g>
</g>
<g>
</g>
<g>
</g>
<g>
</g>
<g>
</g>
<g>
</g>
<g>
</g>
<g>
</g>
<g>
</g>
<g>
</g>
<g>
</g>
<g>
</g>
<g>
</g>
<g>
</g>
<g>
</g>
</svg>
