<?xml version="1.0" encoding="iso-8859-1"?>
<!-- Generator: Adobe Illustrator 16.0.0, SVG Export Plug-In . SVG Version: 6.00 Build 0)  -->
<!DOCTYPE svg PUBLIC "-//W3C//DTD SVG 1.1//EN" "http://www.w3.org/Graphics/SVG/1.1/DTD/svg11.dtd">
<svg version="1.1" id="Capa_1" xmlns="http://www.w3.org/2000/svg" xmlns:xlink="http://www.w3.org/1999/xlink" x="0px" y="0px"
	 width="30.521px" height="30.52px" viewBox="0 0 409.521 409.52" style="fill:#e27866; opacity:0.653;"
	 xml:space="preserve">
<g>
	<g>
		<path d="M74.114,257.859C33.246,257.859,0,291.096,0,331.958c0,40.869,33.246,74.113,74.114,74.113
			c40.869,0,74.115-33.244,74.115-74.113C148.229,291.096,114.983,257.859,74.114,257.859z M74.114,373.17
			c-22.723,0-41.214-18.49-41.214-41.213c0-22.717,18.491-41.199,41.214-41.199c22.724,0,41.214,18.482,41.214,41.199
			C115.327,354.68,96.837,373.17,74.114,373.17z"/>
		<path d="M23.358,123.06c-9.085,0-16.45,7.366-16.45,16.45c0,9.085,7.365,16.45,16.45,16.45
			c128.831,0,233.652,104.822,233.652,233.662c0,9.084,7.366,16.449,16.451,16.449c9.084,0,16.449-7.365,16.449-16.449
			C289.91,242.637,170.333,123.06,23.358,123.06z"/>
		<path d="M23.358,3.45c-9.085,0-16.45,7.366-16.45,16.45c0,9.085,7.365,16.45,16.45,16.45
			c194.792,0,353.263,158.479,353.263,353.272c0,9.084,7.364,16.449,16.449,16.449c9.084,0,16.45-7.365,16.45-16.449
			C409.521,176.684,236.287,3.45,23.358,3.45z"/>
	</g>
</g>
<g>
</g>
<g>
</g>
<g>
</g>
<g>
</g>
<g>
</g>
<g>
</g>
<g>
</g>
<g>
</g>
<g>
</g>
<g>
</g>
<g>
</g>
<g>
</g>
<g>
</g>
<g>
</g>
<g>
</g>
</svg>
