<?xml version="1.0" encoding="UTF-8" standalone="no" ?>
<!DOCTYPE svg PUBLIC "-//W3C//DTD SVG 1.1//EN" "http://www.w3.org/Graphics/SVG/1.1/DTD/svg11.dtd">
<svg xmlns="http://www.w3.org/2000/svg" xmlns:xlink="http://www.w3.org/1999/xlink" version="1.1" width="200" height="200" viewBox="0 0 200 200" xml:space="preserve">
<desc>Created with Fabric.js 3.6.3</desc>
<defs>
</defs>
<g transform="matrix(1 0 0 -1 100 100)"  >
<g style=""   >
		<g transform="matrix(5.31 0 0 -6.38 -463.43 -220.51)"  >
<path style="stroke: none; stroke-width: 1; stroke-dasharray: none; stroke-linecap: butt; stroke-dashoffset: 0; stroke-linejoin: miter; stroke-miterlimit: 4; fill: rgb(226,120,102); fill-rule: nonzero; opacity: 1;"  transform=" translate(-5.16, -84.61)" d="M 6.28 82.317 h 0.643 v 4.594 H 6.28 V 84.79 H 4.033 v 2.121 H 3.39 V 82.317 h 0.643 v 1.916 H 6.28 Z" stroke-linecap="round" />
</g>
		<g transform="matrix(5.31 0 0 -6.38 -441.63 -228.06)"  >
<path style="stroke: none; stroke-width: 1; stroke-dasharray: none; stroke-linecap: butt; stroke-dashoffset: 0; stroke-linejoin: miter; stroke-miterlimit: 4; fill: rgb(226,120,102); fill-rule: nonzero; opacity: 1;"  transform=" translate(-12.6, -86.71)" d="M 11.136 88.451 a 1.116 1.116 0 0 0 0.19 0.063 a 0.872 0.872 0 0 0 0.229 0.03 a 0.9 0.9 0 0 0 0.57 -0.163 a 1.4 1.4 0 0 0 0.372 -0.527 q -0.419 -0.8 -0.779 -1.687 a 14.775 14.775 0 0 1 -0.6 -1.807 h 0.663 q 0.073 0.3 0.176 0.643 t 0.229 0.709 q 0.126 0.365 0.272 0.73 c 0.1 0.243 0.2 0.477 0.3 0.7 q 0.252 -0.7 0.438 -1.38 t 0.351 -1.4 h 0.637 q -0.238 0.974 -0.531 1.872 t -0.63 1.681 a 3.549 3.549 0 0 1 -0.275 0.514 a 1.534 1.534 0 0 1 -0.316 0.354 a 1.134 1.134 0 0 1 -0.387 0.205 a 1.651 1.651 0 0 1 -0.488 0.067 a 1.2 1.2 0 0 1 -0.152 -0.01 c -0.053 -0.007 -0.1 -0.016 -0.155 -0.026 s -0.1 -0.024 -0.14 -0.037 a 0.571 0.571 0 0 1 -0.089 -0.033 Z" stroke-linecap="round" />
</g>
		<g transform="matrix(5.31 0 0 -6.38 -422.43 -227.87)"  >
<path style="stroke: none; stroke-width: 1; stroke-dasharray: none; stroke-linecap: butt; stroke-dashoffset: 0; stroke-linejoin: miter; stroke-miterlimit: 4; fill: rgb(226,120,102); fill-rule: nonzero; opacity: 1;"  transform=" translate(-19.13, -86.62)" d="M 20 87.407 a 1.689 1.689 0 0 1 -0.308 0.136 a 1.56 1.56 0 0 1 -0.535 0.083 a 1.725 1.725 0 0 1 -0.586 -0.1 a 1.277 1.277 0 0 1 -0.481 -0.309 a 1.49 1.49 0 0 1 -0.325 -0.52 a 2.073 2.073 0 0 1 -0.12 -0.743 a 2.039 2.039 0 0 1 0.113 -0.692 a 1.549 1.549 0 0 1 0.328 -0.544 a 1.511 1.511 0 0 1 0.527 -0.358 a 1.821 1.821 0 0 1 0.7 -0.129 a 4 4 0 0 1 0.752 0.062 c 0.214 0.043 0.395 0.081 0.541 0.116 v 3.076 a 1.454 1.454 0 0 1 -0.411 1.154 A 1.857 1.857 0 0 1 18.953 89 a 3.333 3.333 0 0 1 -0.613 -0.053 a 3.48 3.48 0 0 1 -0.5 -0.125 l 0.113 -0.537 a 2.735 2.735 0 0 0 0.454 0.129 a 2.679 2.679 0 0 0 0.56 0.057 a 1.167 1.167 0 0 0 0.792 -0.219 a 0.9 0.9 0 0 0 0.242 -0.7 v -0.146 Z M 20 84.848 a 1.929 1.929 0 0 0 -0.249 -0.05 a 2.96 2.96 0 0 0 -0.421 -0.023 a 0.938 0.938 0 0 0 -0.766 0.325 a 1.309 1.309 0 0 0 -0.268 0.862 a 1.524 1.524 0 0 0 0.076 0.511 a 1.013 1.013 0 0 0 0.206 0.351 a 0.8 0.8 0 0 0 0.3 0.205 a 0.958 0.958 0 0 0 0.348 0.066 a 1.393 1.393 0 0 0 0.451 -0.07 a 1.122 1.122 0 0 0 0.325 -0.162 V 84.848 Z" stroke-linecap="round" />
</g>
		<g transform="matrix(5.31 0 0 -6.38 -406.6 -219.53)"  >
<path style="stroke: none; stroke-width: 1; stroke-dasharray: none; stroke-linecap: butt; stroke-dashoffset: 0; stroke-linejoin: miter; stroke-miterlimit: 4; fill: rgb(226,120,102); fill-rule: nonzero; opacity: 1;"  transform=" translate(-25.29, -84.25)" d="M 25.289 82.619 a 0.394 0.394 0 0 1 -0.281 -0.109 a 0.433 0.433 0 0 1 0 -0.59 a 0.418 0.418 0 0 1 0.563 0 a 0.433 0.433 0 0 1 0 0.59 A 0.4 0.4 0 0 1 25.289 82.619 Z m 0.312 4.071 h -0.617 V 83.242 H 25.6 Z" stroke-linecap="round" />
</g>
		<g transform="matrix(5.31 0 0 -6.38 -391.64 -224.05)"  >
<path style="stroke: none; stroke-width: 1; stroke-dasharray: none; stroke-linecap: butt; stroke-dashoffset: 0; stroke-linejoin: miter; stroke-miterlimit: 4; fill: rgb(226,120,102); fill-rule: nonzero; opacity: 1;"  transform=" translate(-29.45, -86.01)" d="M 27.94 86.023 a 2.2 2.2 0 0 1 0.133 -0.8 a 1.658 1.658 0 0 1 0.351 -0.567 a 1.437 1.437 0 0 1 0.5 -0.339 a 1.571 1.571 0 0 1 0.583 -0.113 a 1.328 1.328 0 0 1 1.067 0.435 a 2 2 0 0 1 0.372 1.322 v 0.1 a 1.028 1.028 0 0 1 -0.007 0.116 h -2.36 a 1.259 1.259 0 0 0 0.312 0.816 a 1.141 1.141 0 0 0 0.849 0.279 a 2.256 2.256 0 0 0 0.547 -0.057 a 1.945 1.945 0 0 0 0.335 -0.109 l 0.086 0.517 a 1.8 1.8 0 0 1 -0.395 0.126 a 2.832 2.832 0 0 1 -0.64 0.066 a 2.035 2.035 0 0 1 -0.779 -0.136 a 1.453 1.453 0 0 1 -0.54 -0.375 a 1.536 1.536 0 0 1 -0.316 -0.567 A 2.418 2.418 0 0 1 27.94 86.023 Z m 2.367 -0.339 A 1.036 1.036 0 0 0 30.1 85 a 0.722 0.722 0 0 0 -0.594 -0.268 a 0.806 0.806 0 0 0 -0.374 0.083 a 0.862 0.862 0 0 0 -0.275 0.216 a 0.984 0.984 0 0 0 -0.176 0.3 a 1.518 1.518 0 0 0 -0.083 0.351 h 1.71 Z" stroke-linecap="round" />
</g>
		<g transform="matrix(5.31 0 0 -6.38 -370.85 -223.87)"  >
<path style="stroke: none; stroke-width: 1; stroke-dasharray: none; stroke-linecap: butt; stroke-dashoffset: 0; stroke-linejoin: miter; stroke-miterlimit: 4; fill: rgb(226,120,102); fill-rule: nonzero; opacity: 1;"  transform=" translate(-36.5, -85.99)" d="M 35.11 84.4 q 0.212 -0.053 0.564 -0.113 a 4.871 4.871 0 0 1 0.809 -0.059 a 1.75 1.75 0 0 1 0.683 0.116 a 1.072 1.072 0 0 1 0.434 0.325 a 1.255 1.255 0 0 1 0.229 0.5 a 2.935 2.935 0 0 1 0.066 0.643 v 1.935 h -0.616 v -1.8 a 2.942 2.942 0 0 0 -0.043 -0.543 a 0.92 0.92 0 0 0 -0.143 -0.364 a 0.56 0.56 0 0 0 -0.266 -0.2 a 1.165 1.165 0 0 0 -0.411 -0.063 c -0.067 0 -0.135 0 -0.205 0.006 s -0.138 0.01 -0.2 0.017 s -0.122 0.014 -0.172 0.023 l -0.109 0.02 v 2.91 H 35.11 Z" stroke-linecap="round" />
</g>
		<g transform="matrix(5.31 0 0 -6.38 -350.33 -224.05)"  >
<path style="stroke: none; stroke-width: 1; stroke-dasharray: none; stroke-linecap: butt; stroke-dashoffset: 0; stroke-linejoin: miter; stroke-miterlimit: 4; fill: rgb(226,120,102); fill-rule: nonzero; opacity: 1;"  transform=" translate(-43.31, -86.01)" d="M 41.8 86.023 a 2.189 2.189 0 0 1 0.133 -0.8 a 1.665 1.665 0 0 1 0.351 -0.567 a 1.437 1.437 0 0 1 0.5 -0.339 a 1.575 1.575 0 0 1 0.583 -0.113 a 1.329 1.329 0 0 1 1.068 0.435 a 2 2 0 0 1 0.371 1.322 v 0.1 a 1.036 1.036 0 0 1 -0.006 0.116 h -2.36 a 1.253 1.253 0 0 0 0.312 0.816 a 1.139 1.139 0 0 0 0.849 0.279 a 2.26 2.26 0 0 0 0.547 -0.057 a 1.962 1.962 0 0 0 0.335 -0.109 l 0.086 0.517 a 1.812 1.812 0 0 1 -0.395 0.126 a 2.833 2.833 0 0 1 -0.64 0.066 a 2.039 2.039 0 0 1 -0.779 -0.136 a 1.457 1.457 0 0 1 -0.54 -0.375 a 1.527 1.527 0 0 1 -0.315 -0.567 A 2.4 2.4 0 0 1 41.8 86.023 Z m 2.367 -0.339 A 1.037 1.037 0 0 0 43.962 85 a 0.721 0.721 0 0 0 -0.593 -0.268 a 0.81 0.81 0 0 0 -0.374 0.083 a 0.868 0.868 0 0 0 -0.275 0.216 a 0.972 0.972 0 0 0 -0.175 0.3 a 1.462 1.462 0 0 0 -0.083 0.351 h 1.71 Z" stroke-linecap="round" />
</g>
		<g transform="matrix(5.31 0 0 -6.38 -322.83 -220.44)"  >
<path style="stroke: none; stroke-width: 1; stroke-dasharray: none; stroke-linecap: butt; stroke-dashoffset: 0; stroke-linejoin: miter; stroke-miterlimit: 4; fill: rgb(226,120,102); fill-rule: nonzero; opacity: 1;"  transform=" translate(-52.47, -84.52)" d="M 52.339 86.372 q 1.007 0 1.007 -0.689 a 0.69 0.69 0 0 0 -0.089 -0.362 a 0.854 0.854 0 0 0 -0.243 -0.258 a 1.694 1.694 0 0 0 -0.348 -0.189 c -0.13 -0.053 -0.268 -0.106 -0.414 -0.159 a 4.2 4.2 0 0 1 -0.477 -0.2 a 1.649 1.649 0 0 1 -0.391 -0.258 a 1.09 1.09 0 0 1 -0.262 -0.355 a 1.165 1.165 0 0 1 -0.1 -0.5 a 1.152 1.152 0 0 1 0.411 -0.942 a 1.734 1.734 0 0 1 1.134 -0.339 a 2.955 2.955 0 0 1 0.76 0.09 a 1.709 1.709 0 0 1 0.5 0.2 l -0.2 0.523 a 1.814 1.814 0 0 0 -0.414 -0.169 a 2.215 2.215 0 0 0 -0.64 -0.083 a 1.4 1.4 0 0 0 -0.345 0.04 a 0.885 0.885 0 0 0 -0.278 0.119 a 0.6 0.6 0 0 0 -0.19 0.2 a 0.577 0.577 0 0 0 -0.07 0.288 a 0.609 0.609 0 0 0 0.073 0.312 a 0.718 0.718 0 0 0 0.205 0.222 a 1.736 1.736 0 0 0 0.308 0.176 c 0.117 0.053 0.246 0.106 0.388 0.159 c 0.2 0.08 0.382 0.16 0.547 0.239 a 1.8 1.8 0 0 1 0.431 0.285 a 1.138 1.138 0 0 1 0.282 0.395 a 1.383 1.383 0 0 1 0.1 0.553 a 1.085 1.085 0 0 1 -0.441 0.929 a 2.068 2.068 0 0 1 -1.243 0.325 a 3.226 3.226 0 0 1 -0.5 -0.036 a 3.714 3.714 0 0 1 -0.408 -0.086 a 2.407 2.407 0 0 1 -0.308 -0.106 c -0.086 -0.038 -0.153 -0.07 -0.2 -0.1 l 0.193 -0.531 a 2.88 2.88 0 0 0 0.464 0.193 A 2.41 2.41 0 0 0 52.339 86.372 Z" stroke-linecap="round" />
</g>
		<g transform="matrix(5.31 0 0 -6.38 -302.58 -224.05)"  >
<path style="stroke: none; stroke-width: 1; stroke-dasharray: none; stroke-linecap: butt; stroke-dashoffset: 0; stroke-linejoin: miter; stroke-miterlimit: 4; fill: rgb(226,120,102); fill-rule: nonzero; opacity: 1;"  transform=" translate(-59.32, -86.01)" d="M 57.813 86.023 a 2.189 2.189 0 0 1 0.132 -0.8 a 1.666 1.666 0 0 1 0.351 -0.567 a 1.436 1.436 0 0 1 0.5 -0.339 a 1.571 1.571 0 0 1 0.583 -0.113 a 1.328 1.328 0 0 1 1.067 0.435 a 2 2 0 0 1 0.372 1.322 v 0.1 a 1.03 1.03 0 0 1 -0.007 0.116 h -2.36 a 1.256 1.256 0 0 0 0.312 0.816 a 1.139 1.139 0 0 0 0.849 0.279 a 2.26 2.26 0 0 0 0.547 -0.057 a 1.945 1.945 0 0 0 0.335 -0.109 l 0.086 0.517 a 1.8 1.8 0 0 1 -0.394 0.126 a 2.832 2.832 0 0 1 -0.64 0.066 a 2.037 2.037 0 0 1 -0.779 -0.136 a 1.457 1.457 0 0 1 -0.54 -0.375 a 1.527 1.527 0 0 1 -0.315 -0.567 A 2.4 2.4 0 0 1 57.813 86.023 Z m 2.367 -0.339 A 1.036 1.036 0 0 0 59.971 85 a 0.721 0.721 0 0 0 -0.594 -0.268 a 0.81 0.81 0 0 0 -0.374 0.083 a 0.86 0.86 0 0 0 -0.275 0.216 a 0.962 0.962 0 0 0 -0.176 0.3 a 1.519 1.519 0 0 0 -0.083 0.351 H 60.18 Z" stroke-linecap="round" />
</g>
		<g transform="matrix(5.31 0 0 -6.38 -283.98 -223.87)"  >
<path style="stroke: none; stroke-width: 1; stroke-dasharray: none; stroke-linecap: butt; stroke-dashoffset: 0; stroke-linejoin: miter; stroke-miterlimit: 4; fill: rgb(226,120,102); fill-rule: nonzero; opacity: 1;"  transform=" translate(-65.96, -85.99)" d="M 66.256 84.23 a 1.71 1.71 0 0 1 0.182 0.01 c 0.068 0.006 0.136 0.015 0.2 0.026 l 0.182 0.033 c 0.055 0.012 0.1 0.021 0.123 0.03 l -0.106 0.537 a 1.977 1.977 0 0 0 -0.677 -0.1 a 1.624 1.624 0 0 0 -0.341 0.036 c -0.113 0.024 -0.187 0.042 -0.222 0.05 v 2.9 h -0.617 v -3.3 a 4.152 4.152 0 0 1 0.544 -0.149 A 3.491 3.491 0 0 1 66.256 84.23 Z" stroke-linecap="round" />
</g>
		<g transform="matrix(5.31 0 0 -6.38 -267.55 -224.15)"  >
<path style="stroke: none; stroke-width: 1; stroke-dasharray: none; stroke-linecap: butt; stroke-dashoffset: 0; stroke-linejoin: miter; stroke-miterlimit: 4; fill: rgb(226,120,102); fill-rule: nonzero; opacity: 1;"  transform=" translate(-71.01, -86.08)" d="M 72.573 84.36 a 17.613 17.613 0 0 1 -0.607 1.857 q -0.349 0.888 -0.673 1.591 h -0.557 q -0.325 -0.7 -0.673 -1.591 a 17.36 17.36 0 0 1 -0.606 -1.857 h 0.663 q 0.079 0.324 0.189 0.693 t 0.232 0.729 c 0.082 0.241 0.165 0.473 0.248 0.7 s 0.164 0.426 0.239 0.6 c 0.075 -0.177 0.154 -0.377 0.239 -0.6 s 0.167 -0.458 0.248 -0.7 s 0.159 -0.485 0.232 -0.729 s 0.136 -0.477 0.189 -0.693 Z" stroke-linecap="round" />
</g>
		<g transform="matrix(5.31 0 0 -6.38 -253.44 -219.53)"  >
<path style="stroke: none; stroke-width: 1; stroke-dasharray: none; stroke-linecap: butt; stroke-dashoffset: 0; stroke-linejoin: miter; stroke-miterlimit: 4; fill: rgb(226,120,102); fill-rule: nonzero; opacity: 1;"  transform=" translate(-76.66, -84.25)" d="M 76.664 82.619 a 0.4 0.4 0 0 1 -0.282 -0.109 a 0.433 0.433 0 0 1 0 -0.59 a 0.419 0.419 0 0 1 0.564 0 a 0.434 0.434 0 0 1 0 0.59 A 0.4 0.4 0 0 1 76.664 82.619 Z m 0.312 4.071 h -0.617 V 83.242 h 0.617 Z" stroke-linecap="round" />
</g>
		<g transform="matrix(5.31 0 0 -6.38 -239.57 -224.15)"  >
<path style="stroke: none; stroke-width: 1; stroke-dasharray: none; stroke-linecap: butt; stroke-dashoffset: 0; stroke-linejoin: miter; stroke-miterlimit: 4; fill: rgb(226,120,102); fill-rule: nonzero; opacity: 1;"  transform=" translate(-80.62, -86.01)" d="M 81 87.82 a 1.892 1.892 0 0 1 -0.733 -0.132 a 1.482 1.482 0 0 1 -0.531 -0.372 a 1.552 1.552 0 0 1 -0.321 -0.567 a 2.355 2.355 0 0 1 -0.106 -0.726 a 2.193 2.193 0 0 1 0.116 -0.729 a 1.727 1.727 0 0 1 0.328 -0.574 a 1.461 1.461 0 0 1 0.52 -0.377 a 1.689 1.689 0 0 1 0.686 -0.136 a 2.771 2.771 0 0 1 0.465 0.04 a 2.18 2.18 0 0 1 0.444 0.126 l -0.139 0.523 a 1.477 1.477 0 0 0 -0.322 -0.106 a 1.819 1.819 0 0 0 -0.387 -0.04 a 0.984 0.984 0 0 0 -0.793 0.325 a 1.433 1.433 0 0 0 -0.275 0.948 a 1.944 1.944 0 0 0 0.063 0.511 a 1.039 1.039 0 0 0 0.2 0.4 a 0.884 0.884 0 0 0 0.348 0.255 a 1.324 1.324 0 0 0 0.517 0.09 a 1.961 1.961 0 0 0 0.444 -0.047 a 1.594 1.594 0 0 0 0.312 -0.1 l 0.086 0.517 a 0.647 0.647 0 0 1 -0.153 0.063 a 2.1 2.1 0 0 1 -0.225 0.053 c -0.084 0.015 -0.173 0.029 -0.268 0.04 S 81.09 87.82 81 87.82 Z" stroke-linecap="round" />
</g>
		<g transform="matrix(5.31 0 0 -6.38 -221.55 -224.05)"  >
<path style="stroke: none; stroke-width: 1; stroke-dasharray: none; stroke-linecap: butt; stroke-dashoffset: 0; stroke-linejoin: miter; stroke-miterlimit: 4; fill: rgb(226,120,102); fill-rule: nonzero; opacity: 1;"  transform=" translate(-86.49, -86.01)" d="M 84.983 86.023 a 2.189 2.189 0 0 1 0.132 -0.8 a 1.658 1.658 0 0 1 0.351 -0.567 a 1.429 1.429 0 0 1 0.5 -0.339 a 1.571 1.571 0 0 1 0.583 -0.113 a 1.328 1.328 0 0 1 1.067 0.435 a 2 2 0 0 1 0.372 1.322 v 0.1 a 0.909 0.909 0 0 1 -0.007 0.116 h -2.36 a 1.256 1.256 0 0 0 0.312 0.816 a 1.139 1.139 0 0 0 0.849 0.279 a 2.26 2.26 0 0 0 0.547 -0.057 a 1.946 1.946 0 0 0 0.335 -0.109 l 0.086 0.517 a 1.812 1.812 0 0 1 -0.395 0.126 a 2.832 2.832 0 0 1 -0.64 0.066 a 2.039 2.039 0 0 1 -0.779 -0.136 a 1.457 1.457 0 0 1 -0.54 -0.375 a 1.527 1.527 0 0 1 -0.315 -0.567 A 2.4 2.4 0 0 1 84.983 86.023 Z m 2.367 -0.339 A 1.036 1.036 0 0 0 87.141 85 a 0.722 0.722 0 0 0 -0.594 -0.268 a 0.81 0.81 0 0 0 -0.374 0.083 a 0.862 0.862 0 0 0 -0.275 0.216 a 0.963 0.963 0 0 0 -0.176 0.3 a 1.489 1.489 0 0 0 -0.083 0.351 H 87.35 Z" stroke-linecap="round" />
</g>
		<g transform="matrix(5.31 0 0 -6.38 -203.1 -224.07)"  >
<path style="stroke: none; stroke-width: 1; stroke-dasharray: none; stroke-linecap: butt; stroke-dashoffset: 0; stroke-linejoin: miter; stroke-miterlimit: 4; fill: rgb(226,120,102); fill-rule: nonzero; opacity: 1;"  transform=" translate(-92.89, -86.01)" d="M 92.745 87.3 a 1.223 1.223 0 0 0 0.56 -0.1 a 0.336 0.336 0 0 0 0.182 -0.318 a 0.423 0.423 0 0 0 -0.179 -0.358 a 2.833 2.833 0 0 0 -0.59 -0.3 c -0.133 -0.053 -0.26 -0.107 -0.381 -0.163 a 1.331 1.331 0 0 1 -0.316 -0.2 a 0.844 0.844 0 0 1 -0.212 -0.271 a 0.966 0.966 0 0 1 0.259 -1.117 a 1.445 1.445 0 0 1 0.921 -0.268 a 2.545 2.545 0 0 1 0.292 0.017 c 0.1 0.011 0.188 0.024 0.272 0.04 s 0.158 0.032 0.222 0.049 s 0.113 0.034 0.149 0.047 l -0.113 0.53 a 1.6 1.6 0 0 0 -0.312 -0.109 a 2.008 2.008 0 0 0 -0.511 -0.057 a 0.936 0.936 0 0 0 -0.451 0.1 a 0.341 0.341 0 0 0 -0.193 0.322 a 0.441 0.441 0 0 0 0.044 0.2 a 0.462 0.462 0 0 0 0.133 0.156 a 1.051 1.051 0 0 0 0.222 0.129 c 0.088 0.04 0.194 0.082 0.318 0.126 c 0.163 0.061 0.309 0.122 0.437 0.182 a 1.345 1.345 0 0 1 0.328 0.209 a 0.8 0.8 0 0 1 0.209 0.288 a 1.05 1.05 0 0 1 0.073 0.414 a 0.823 0.823 0 0 1 -0.354 0.723 a 1.766 1.766 0 0 1 -1.011 0.245 a 2.635 2.635 0 0 1 -0.716 -0.076 a 3.485 3.485 0 0 1 -0.351 -0.116 l 0.112 -0.53 c 0.071 0.027 0.184 0.066 0.339 0.119 A 1.955 1.955 0 0 0 92.745 87.3 Z" stroke-linecap="round" />
</g>
		<g transform="matrix(5.31 0 0 -6.38 -457.29 -140.77)"  >
<path style="stroke: none; stroke-width: 1; stroke-dasharray: none; stroke-linecap: butt; stroke-dashoffset: 0; stroke-linejoin: miter; stroke-miterlimit: 4; fill: rgb(255,255,255); fill-rule: nonzero; opacity: 1;"  transform=" translate(-4.82, -59.1)" d="M 5.857 65.6 a 6.365 6.365 0 0 1 -2.389 -0.431 a 5.07 5.07 0 0 1 -1.85 -1.258 A 5.658 5.658 0 0 1 0.423 61.869 A 8.4 8.4 0 0 1 0 59.094 a 7.555 7.555 0 0 1 0.476 -2.775 A 6.018 6.018 0 0 1 1.761 54.28 a 5.442 5.442 0 0 1 1.887 -1.257 a 6.133 6.133 0 0 1 2.3 -0.432 a 8.165 8.165 0 0 1 1.392 0.108 a 8.6 8.6 0 0 1 1.078 0.252 a 5.2 5.2 0 0 1 0.746 0.287 a 4.338 4.338 0 0 1 0.4 0.216 l -0.5 1.437 a 2.877 2.877 0 0 0 -0.467 -0.234 q -0.306 -0.125 -0.692 -0.252 a 6.3 6.3 0 0 0 -0.844 -0.207 a 5.306 5.306 0 0 0 -0.925 -0.081 a 4.447 4.447 0 0 0 -1.779 0.341 A 3.684 3.684 0 0 0 3 55.447 a 4.47 4.47 0 0 0 -0.853 1.572 a 6.779 6.779 0 0 0 -0.3 2.075 a 7.414 7.414 0 0 0 0.26 2.03 A 4.447 4.447 0 0 0 2.892 62.7 a 3.512 3.512 0 0 0 1.3 1.015 a 4.323 4.323 0 0 0 1.824 0.359 a 6.679 6.679 0 0 0 1.994 -0.251 A 8.706 8.706 0 0 0 9.2 63.369 l 0.449 1.437 a 2.5 2.5 0 0 1 -0.449 0.225 a 6.051 6.051 0 0 1 -0.809 0.261 a 10.309 10.309 0 0 1 -1.132 0.216 A 10 10 0 0 1 5.857 65.6 Z" stroke-linecap="round" />
</g>
		<g transform="matrix(5.31 0 0 -6.38 -406.51 -136.07)"  >
<path style="stroke: none; stroke-width: 1; stroke-dasharray: none; stroke-linecap: butt; stroke-dashoffset: 0; stroke-linejoin: miter; stroke-miterlimit: 4; fill: rgb(255,255,255); fill-rule: nonzero; opacity: 1;"  transform=" translate(-22.69, -57.42)" d="M 18.912 64.388 V 50.735 l 1.671 -0.287 v 4.778 a 5.653 5.653 0 0 1 1 -0.278 a 5.738 5.738 0 0 1 1.051 -0.1 a 4.726 4.726 0 0 1 1.85 0.314 a 2.9 2.9 0 0 1 1.177 0.88 a 3.422 3.422 0 0 1 0.62 1.356 a 7.882 7.882 0 0 1 0.179 1.743 v 5.246 H 24.785 V 59.5 a 7.963 7.963 0 0 0 -0.117 -1.473 a 2.489 2.489 0 0 0 -0.386 -0.988 a 1.535 1.535 0 0 0 -0.719 -0.549 a 3.154 3.154 0 0 0 -1.113 -0.171 a 4.466 4.466 0 0 0 -0.558 0.036 c -0.191 0.024 -0.374 0.051 -0.548 0.08 s -0.33 0.063 -0.467 0.1 a 2.7 2.7 0 0 0 -0.3 0.09 v 7.76 Z" stroke-linecap="round" />
</g>
		<g transform="matrix(5.31 0 0 -6.38 -358.01 -150.72)"  >
<path style="stroke: none; stroke-width: 1; stroke-dasharray: none; stroke-linecap: butt; stroke-dashoffset: 0; stroke-linejoin: miter; stroke-miterlimit: 4; fill: rgb(255,255,255); fill-rule: nonzero; opacity: 1;"  transform=" translate(-38.71, -63.11)" d="M 34.625 63.146 a 5.955 5.955 0 0 1 0.359 -2.164 a 4.533 4.533 0 0 1 0.952 -1.536 a 3.859 3.859 0 0 1 1.365 -0.916 a 4.26 4.26 0 0 1 1.581 -0.305 A 3.6 3.6 0 0 1 41.775 59.4 a 5.414 5.414 0 0 1 1.006 3.584 v 0.278 a 2.576 2.576 0 0 1 -0.018 0.314 h -6.4 a 3.416 3.416 0 0 0 0.844 2.21 a 3.089 3.089 0 0 0 2.3 0.754 a 6.142 6.142 0 0 0 1.482 -0.152 a 5.318 5.318 0 0 0 0.907 -0.3 l 0.234 1.4 a 4.925 4.925 0 0 1 -1.069 0.341 a 7.6 7.6 0 0 1 -1.733 0.18 a 5.5 5.5 0 0 1 -2.111 -0.368 a 3.931 3.931 0 0 1 -1.464 -1.015 A 4.146 4.146 0 0 1 34.9 65.1 A 6.479 6.479 0 0 1 34.625 63.146 Z m 6.413 -0.916 a 2.805 2.805 0 0 0 -0.566 -1.86 a 1.95 1.95 0 0 0 -1.608 -0.728 a 2.2 2.2 0 0 0 -1.015 0.225 a 2.393 2.393 0 0 0 -0.745 0.584 a 2.673 2.673 0 0 0 -0.476 0.826 a 4.071 4.071 0 0 0 -0.225 0.952 Z" stroke-linecap="round" />
</g>
		<g transform="matrix(5.31 0 0 -6.38 -315.23 -150.68)"  >
<path style="stroke: none; stroke-width: 1; stroke-dasharray: none; stroke-linecap: butt; stroke-dashoffset: 0; stroke-linejoin: miter; stroke-miterlimit: 4; fill: rgb(255,255,255); fill-rule: nonzero; opacity: 1;"  transform=" translate(-53.68, -63.12)" d="M 53.271 66.594 a 3.289 3.289 0 0 0 1.518 -0.269 a 0.912 0.912 0 0 0 0.494 -0.862 a 1.145 1.145 0 0 0 -0.485 -0.97 a 7.71 7.71 0 0 0 -1.6 -0.808 q -0.54 -0.215 -1.033 -0.44 a 3.619 3.619 0 0 1 -0.853 -0.53 a 2.3 2.3 0 0 1 -0.575 -0.737 a 2.351 2.351 0 0 1 -0.216 -1.06 a 2.379 2.379 0 0 1 0.916 -1.967 a 3.912 3.912 0 0 1 2.5 -0.727 a 7.047 7.047 0 0 1 0.791 0.045 q 0.395 0.045 0.737 0.108 c 0.227 0.042 0.428 0.088 0.6 0.135 s 0.308 0.09 0.4 0.126 l -0.305 1.437 a 4.218 4.218 0 0 0 -0.844 -0.3 a 5.429 5.429 0 0 0 -1.383 -0.153 a 2.556 2.556 0 0 0 -1.221 0.278 a 0.923 0.923 0 0 0 -0.521 0.871 a 1.182 1.182 0 0 0 0.117 0.538 a 1.244 1.244 0 0 0 0.36 0.422 a 2.945 2.945 0 0 0 0.6 0.351 q 0.36 0.162 0.862 0.341 q 0.665 0.252 1.185 0.494 a 3.716 3.716 0 0 1 0.889 0.566 a 2.181 2.181 0 0 1 0.566 0.782 a 2.838 2.838 0 0 1 0.2 1.123 a 2.227 2.227 0 0 1 -0.961 1.958 a 4.785 4.785 0 0 1 -2.739 0.665 a 7.168 7.168 0 0 1 -1.94 -0.207 a 9.9 9.9 0 0 1 -0.952 -0.315 l 0.305 -1.437 q 0.287 0.108 0.916 0.323 A 5.282 5.282 0 0 0 53.271 66.594 Z" stroke-linecap="round" />
</g>
		<g transform="matrix(5.31 0 0 -6.38 -271.4 -136.07)"  >
<path style="stroke: none; stroke-width: 1; stroke-dasharray: none; stroke-linecap: butt; stroke-dashoffset: 0; stroke-linejoin: miter; stroke-miterlimit: 4; fill: rgb(255,255,255); fill-rule: nonzero; opacity: 1;"  transform=" translate(-68, -57.42)" d="M 64.226 64.388 V 50.735 l 1.671 -0.287 v 4.778 a 5.653 5.653 0 0 1 1 -0.278 a 5.738 5.738 0 0 1 1.051 -0.1 a 4.726 4.726 0 0 1 1.85 0.314 a 2.9 2.9 0 0 1 1.177 0.88 a 3.422 3.422 0 0 1 0.62 1.356 a 7.882 7.882 0 0 1 0.179 1.743 v 5.246 H 70.1 V 59.5 a 7.962 7.962 0 0 0 -0.117 -1.473 a 2.488 2.488 0 0 0 -0.386 -0.988 a 1.535 1.535 0 0 0 -0.719 -0.549 a 3.154 3.154 0 0 0 -1.113 -0.171 a 4.472 4.472 0 0 0 -0.558 0.036 c -0.191 0.024 -0.374 0.051 -0.548 0.08 s -0.33 0.063 -0.467 0.1 a 2.7 2.7 0 0 0 -0.3 0.09 v 7.76 Z" stroke-linecap="round" />
</g>
		<g transform="matrix(5.31 0 0 -6.38 -237.74 -138.35)"  >
<path style="stroke: none; stroke-width: 1; stroke-dasharray: none; stroke-linecap: butt; stroke-dashoffset: 0; stroke-linejoin: miter; stroke-miterlimit: 4; fill: rgb(255,255,255); fill-rule: nonzero; opacity: 1;"  transform=" translate(-81.4, -58.34)" d="M 81.4 53.919 a 1.071 1.071 0 0 1 -0.764 -0.3 a 1.173 1.173 0 0 1 0 -1.6 a 1.132 1.132 0 0 1 1.527 0 a 1.173 1.173 0 0 1 0 1.6 A 1.07 1.07 0 0 1 81.4 53.919 Z m 0.844 11.03 H 80.574 V 55.608 h 1.671 v 9.341 Z" stroke-linecap="round" />
</g>
		<g transform="matrix(5.31 0 0 -6.38 -209.11 -150.09)"  >
<path style="stroke: none; stroke-width: 1; stroke-dasharray: none; stroke-linecap: butt; stroke-dashoffset: 0; stroke-linejoin: miter; stroke-miterlimit: 4; fill: rgb(255,255,255); fill-rule: nonzero; opacity: 1;"  transform=" translate(-89.76, -63.06)" d="M 90.552 58.288 c 0.144 0 0.308 0.008 0.494 0.026 s 0.368 0.042 0.549 0.072 s 0.344 0.06 0.494 0.09 a 3.223 3.223 0 0 1 0.332 0.081 l -0.287 1.455 a 5.626 5.626 0 0 0 -0.655 -0.171 a 5.766 5.766 0 0 0 -1.177 -0.1 a 4.384 4.384 0 0 0 -0.925 0.1 q -0.458 0.1 -0.6 0.135 v 7.85 H 87.1 V 58.88 a 11.457 11.457 0 0 1 1.473 -0.4 A 9.456 9.456 0 0 1 90.552 58.288 Z" stroke-linecap="round" />
</g>
		<g transform="matrix(5.31 0 0 -6.38 -173.16 -150.72)"  >
<path style="stroke: none; stroke-width: 1; stroke-dasharray: none; stroke-linecap: butt; stroke-dashoffset: 0; stroke-linejoin: miter; stroke-miterlimit: 4; fill: rgb(255,255,255); fill-rule: nonzero; opacity: 1;"  transform=" translate(-100.7, -63.11)" d="M 96.617 63.146 a 5.955 5.955 0 0 1 0.359 -2.164 a 4.532 4.532 0 0 1 0.952 -1.536 a 3.859 3.859 0 0 1 1.365 -0.916 a 4.26 4.26 0 0 1 1.581 -0.305 a 3.6 3.6 0 0 1 2.892 1.176 a 5.411 5.411 0 0 1 1.006 3.584 v 0.278 a 2.574 2.574 0 0 1 -0.018 0.314 h -6.4 a 3.416 3.416 0 0 0 0.844 2.21 a 3.089 3.089 0 0 0 2.3 0.754 a 6.145 6.145 0 0 0 1.482 -0.152 a 5.318 5.318 0 0 0 0.907 -0.3 l 0.234 1.4 a 4.936 4.936 0 0 1 -1.069 0.341 a 7.6 7.6 0 0 1 -1.733 0.18 a 5.5 5.5 0 0 1 -2.111 -0.368 a 3.929 3.929 0 0 1 -1.464 -1.015 a 4.146 4.146 0 0 1 -0.853 -1.536 A 6.515 6.515 0 0 1 96.617 63.146 Z m 6.414 -0.916 a 2.809 2.809 0 0 0 -0.567 -1.86 a 1.95 1.95 0 0 0 -1.608 -0.728 a 2.2 2.2 0 0 0 -1.015 0.225 a 2.393 2.393 0 0 0 -0.745 0.584 a 2.686 2.686 0 0 0 -0.477 0.826 a 4.07 4.07 0 0 0 -0.225 0.952 Z" stroke-linecap="round" />
</g>
		<g transform="matrix(5.31 0 0 -6.38 -102.75 -140.78)"  >
<path style="stroke: none; stroke-width: 1; stroke-dasharray: none; stroke-linecap: butt; stroke-dashoffset: 0; stroke-linejoin: miter; stroke-miterlimit: 4; fill: rgb(255,255,255); fill-rule: nonzero; opacity: 1;"  transform=" translate(-123.74, -59.1)" d="M 124.773 65.6 a 6.367 6.367 0 0 1 -2.389 -0.431 a 5.086 5.086 0 0 1 -1.851 -1.258 a 5.649 5.649 0 0 1 -1.194 -2.039 a 8.406 8.406 0 0 1 -0.422 -2.775 a 7.543 7.543 0 0 1 0.476 -2.775 a 6.017 6.017 0 0 1 1.284 -2.039 a 5.447 5.447 0 0 1 1.887 -1.257 a 6.131 6.131 0 0 1 2.3 -0.432 a 8.172 8.172 0 0 1 1.392 0.108 a 8.587 8.587 0 0 1 1.077 0.252 a 5.173 5.173 0 0 1 0.746 0.287 a 4.417 4.417 0 0 1 0.4 0.216 l -0.5 1.437 a 2.876 2.876 0 0 0 -0.467 -0.234 q -0.3 -0.125 -0.691 -0.252 a 6.344 6.344 0 0 0 -0.844 -0.207 a 5.311 5.311 0 0 0 -0.925 -0.081 a 4.447 4.447 0 0 0 -1.779 0.341 a 3.677 3.677 0 0 0 -1.347 0.988 a 4.48 4.48 0 0 0 -0.854 1.572 a 6.78 6.78 0 0 0 -0.3 2.075 a 7.371 7.371 0 0 0 0.261 2.03 a 4.446 4.446 0 0 0 0.781 1.572 a 3.516 3.516 0 0 0 1.3 1.015 a 4.321 4.321 0 0 0 1.824 0.359 a 6.681 6.681 0 0 0 1.994 -0.251 a 8.664 8.664 0 0 0 1.185 -0.449 l 0.45 1.437 a 2.532 2.532 0 0 1 -0.45 0.225 a 6.041 6.041 0 0 1 -0.808 0.261 a 10.309 10.309 0 0 1 -1.132 0.216 A 10.015 10.015 0 0 1 124.773 65.6 Z" stroke-linecap="round" />
</g>
		<g transform="matrix(5.31 0 0 -6.38 -52.53 -150.74)"  >
<path style="stroke: none; stroke-width: 1; stroke-dasharray: none; stroke-linecap: butt; stroke-dashoffset: 0; stroke-linejoin: miter; stroke-miterlimit: 4; fill: rgb(255,255,255); fill-rule: nonzero; opacity: 1;"  transform=" translate(-140.93, -63.13)" d="M 145.312 63.128 a 5.9 5.9 0 0 1 -0.323 2.012 a 4.623 4.623 0 0 1 -0.907 1.545 a 3.991 3.991 0 0 1 -1.392 1 a 4.6 4.6 0 0 1 -3.521 0 a 3.988 3.988 0 0 1 -1.392 -1 a 4.614 4.614 0 0 1 -0.907 -1.545 a 6.4 6.4 0 0 1 0 -4.014 a 4.59 4.59 0 0 1 0.907 -1.554 a 3.986 3.986 0 0 1 1.392 -1 a 4.6 4.6 0 0 1 3.521 0 a 4 4 0 0 1 1.392 1 a 4.605 4.605 0 0 1 0.907 1.554 A 5.927 5.927 0 0 1 145.312 63.128 Z m -1.742 0 a 4.017 4.017 0 0 0 -0.71 -2.506 a 2.477 2.477 0 0 0 -3.862 0 a 4.779 4.779 0 0 0 0 5.012 a 2.477 2.477 0 0 0 3.862 0 A 4.018 4.018 0 0 0 143.57 63.128 Z" stroke-linecap="round" />
</g>
		<g transform="matrix(5.31 0 0 -6.38 -2.46 -151.37)"  >
<path style="stroke: none; stroke-width: 1; stroke-dasharray: none; stroke-linecap: butt; stroke-dashoffset: 0; stroke-linejoin: miter; stroke-miterlimit: 4; fill: rgb(255,255,255); fill-rule: nonzero; opacity: 1;"  transform=" translate(-158.21, -63.41)" d="M 161.981 67.71 q -0.576 0.144 -1.517 0.3 a 13.056 13.056 0 0 1 -2.184 0.162 a 4.632 4.632 0 0 1 -1.814 -0.314 a 2.926 2.926 0 0 1 -1.185 -0.889 a 3.6 3.6 0 0 1 -0.646 -1.356 a 7.06 7.06 0 0 1 -0.2 -1.733 V 58.639 h 1.671 v 4.886 a 4.233 4.233 0 0 0 0.538 2.443 a 2.1 2.1 0 0 0 1.815 0.737 c 0.179 0 0.364 -0.006 0.556 -0.018 s 0.371 -0.027 0.54 -0.045 s 0.321 -0.037 0.458 -0.054 a 1.342 1.342 0 0 0 0.3 -0.063 V 58.639 h 1.67 Z" stroke-linecap="round" />
</g>
		<g transform="matrix(5.31 0 0 -6.38 47.62 -150.19)"  >
<path style="stroke: none; stroke-width: 1; stroke-dasharray: none; stroke-linecap: butt; stroke-dashoffset: 0; stroke-linejoin: miter; stroke-miterlimit: 4; fill: rgb(255,255,255); fill-rule: nonzero; opacity: 1;"  transform=" translate(-175, -63.06)" d="M 171.23 58.755 q 0.574 -0.143 1.528 -0.3 a 13.2 13.2 0 0 1 2.191 -0.162 a 4.731 4.731 0 0 1 1.851 0.314 a 2.91 2.91 0 0 1 1.177 0.88 a 3.413 3.413 0 0 1 0.619 1.356 a 7.883 7.883 0 0 1 0.179 1.743 v 5.246 H 177.1 V 62.941 a 7.964 7.964 0 0 0 -0.117 -1.473 a 2.489 2.489 0 0 0 -0.386 -0.988 a 1.541 1.541 0 0 0 -0.719 -0.549 a 3.154 3.154 0 0 0 -1.113 -0.171 c -0.179 0 -0.365 0.007 -0.558 0.018 s -0.374 0.028 -0.547 0.045 s -0.33 0.039 -0.467 0.063 s -0.238 0.042 -0.3 0.054 v 7.886 h -1.67 V 58.755 Z" stroke-linecap="round" />
</g>
		<g transform="matrix(5.31 0 0 -6.38 91.45 -142.23)"  >
<path style="stroke: none; stroke-width: 1; stroke-dasharray: none; stroke-linecap: butt; stroke-dashoffset: 0; stroke-linejoin: miter; stroke-miterlimit: 4; fill: rgb(255,255,255); fill-rule: nonzero; opacity: 1;"  transform=" translate(-190.47, -59.7)" d="M 189.356 56.38 H 192.9 v 1.4 h -3.539 v 4.311 a 5.11 5.11 0 0 0 0.109 1.159 a 1.735 1.735 0 0 0 0.322 0.719 a 1.167 1.167 0 0 0 0.54 0.368 a 2.4 2.4 0 0 0 0.754 0.108 a 3.553 3.553 0 0 0 1.212 -0.171 q 0.459 -0.171 0.638 -0.243 l 0.324 1.383 a 6.278 6.278 0 0 1 -0.88 0.315 a 5.011 5.011 0 0 1 -1.438 0.188 a 4.356 4.356 0 0 1 -1.572 -0.243 a 2.294 2.294 0 0 1 -1 -0.727 a 2.913 2.913 0 0 1 -0.529 -1.195 a 7.926 7.926 0 0 1 -0.153 -1.644 V 53.775 l 1.67 -0.287 V 56.38 Z" stroke-linecap="round" />
</g>
		<g transform="matrix(5.31 0 0 -6.38 128.15 -161.56)"  >
<path style="stroke: none; stroke-width: 1; stroke-dasharray: none; stroke-linecap: butt; stroke-dashoffset: 0; stroke-linejoin: miter; stroke-miterlimit: 4; fill: rgb(255,255,255); fill-rule: nonzero; opacity: 1;"  transform=" translate(-201.63, -64.99)" d="M 197.643 69.723 a 3.219 3.219 0 0 0 0.513 0.171 a 2.467 2.467 0 0 0 0.619 0.081 a 2.43 2.43 0 0 0 1.545 -0.441 a 3.8 3.8 0 0 0 1.006 -1.428 q -1.132 -2.156 -2.111 -4.572 a 39.581 39.581 0 0 1 -1.626 -4.895 h 1.8 q 0.2 0.808 0.477 1.743 t 0.619 1.922 q 0.342 0.988 0.737 1.976 t 0.827 1.9 q 0.684 -1.887 1.185 -3.737 t 0.952 -3.808 h 1.724 q -0.647 2.641 -1.436 5.075 t -1.707 4.553 a 9.522 9.522 0 0 1 -0.745 1.392 a 4.218 4.218 0 0 1 -0.854 0.961 a 3.118 3.118 0 0 1 -1.05 0.557 a 4.493 4.493 0 0 1 -1.321 0.18 a 3.317 3.317 0 0 1 -0.413 -0.027 c -0.145 -0.018 -0.285 -0.042 -0.423 -0.071 s -0.264 -0.063 -0.378 -0.1 a 1.785 1.785 0 0 1 -0.243 -0.09 Z" stroke-linecap="round" />
</g>
		<g transform="matrix(5.31 0 0 -6.38 -0.5 -2.76)"  >
<path style="stroke: none; stroke-width: 1; stroke-dasharray: none; stroke-linecap: butt; stroke-dashoffset: 0; stroke-linejoin: miter; stroke-miterlimit: 4; fill: rgb(226,120,102); fill-rule: nonzero; opacity: 1;"  transform=" translate(-147.53, -14.39)" d="M 165.808 7.772 a 0.316 0.316 0 0 0 -0.012 -0.058 c -0.033 -0.038 0.045 0 -0.12 -0.193 l 0 0 a 0.294 0.294 0 0 0 -0.03 -0.028 a 0.311 0.311 0 0 0 -0.126 -0.074 a 0.409 0.409 0 0 0 -0.177 -0.035 l -0.031 0 a 0.417 0.417 0 0 0 -0.077 0.011 a 1.96 1.96 0 0 0 -0.343 0.113 a 67.239 67.239 0 0 1 -11.187 3.241 A 65.35 65.35 0 0 1 149.54 3.62 c -0.511 -1.018 -0.9 -1.852 -1.164 -2.436 c -0.133 -0.291 -0.235 -0.517 -0.307 -0.677 c -0.036 -0.081 -0.066 -0.142 -0.09 -0.193 a 0.445 0.445 0 0 0 -0.045 -0.079 a 0.318 0.318 0 0 0 -0.047 -0.067 c -0.047 -0.019 -0.029 -0.124 -0.353 -0.169 c -0.337 0.045 -0.321 0.15 -0.366 0.169 a 1.961 1.961 0 0 0 -0.208 0.394 a 67.131 67.131 0 0 1 -5.613 10.188 a 65.734 65.734 0 0 1 -7.912 -2.071 c -1.08 -0.356 -1.948 -0.673 -2.559 -0.9 c -0.3 -0.115 -0.545 -0.207 -0.718 -0.27 a 1.722 1.722 0 0 0 -0.366 -0.117 h 0 a 0.624 0.624 0 0 0 -0.077 -0.008 h -0.01 a 0.358 0.358 0 0 0 -0.17 0.032 c -0.015 0.006 -0.031 0.012 -0.047 0.02 a 0.571 0.571 0 0 0 -0.113 0.083 a 0.33 0.33 0 0 0 -0.084 0.112 a 0.407 0.407 0 0 0 -0.053 0.189 c 0 0.03 0 0.03 0 0.032 a 1.493 1.493 0 0 0 0.128 0.452 a 66.7 66.7 0 0 1 3.38 11.907 c 0.849 3.43 2.307 6.545 5.291 7.877 a 7.659 7.659 0 0 0 3.272 0.7 a 9.169 9.169 0 0 0 6.22 -2.484 a 9.15 9.15 0 0 0 6.217 2.483 a 7.686 7.686 0 0 0 3.285 -0.7 c 2.972 -1.326 4.431 -4.443 5.274 -7.844 a 64.688 64.688 0 0 1 2.214 -8.659 c 0.356 -1.08 0.67 -1.948 0.9 -2.558 c 0.112 -0.305 0.2 -0.546 0.27 -0.72 a 2.517 2.517 0 0 0 0.11 -0.331 a 0.424 0.424 0 0 0 0.016 -0.12 h 0 v 0 h 0 A 0.29 0.29 0 0 0 165.808 7.772 Z m -12.456 4.109 a 12.56 12.56 0 0 1 2.135 6.217 a 6.146 6.146 0 0 1 -0.408 2.237 a 7.845 7.845 0 0 1 -6.459 4.814 a 9.165 9.165 0 0 0 2.021 -5.7 a 7.65 7.65 0 0 0 -0.706 -3.286 a 7.114 7.114 0 0 0 -1.677 -2.3 a 14.544 14.544 0 0 1 4.895 -2.065 h 0 l 0.129 -0.025 C 153.305 11.813 153.329 11.846 153.353 11.881 Z m -11.583 -0.1 l 0.11 0.021 a 14.572 14.572 0 0 1 4.917 2.07 a 7.171 7.171 0 0 0 -1.686 2.313 a 7.643 7.643 0 0 0 -0.7 3.273 a 9.153 9.153 0 0 0 2.024 5.7 a 7.84 7.84 0 0 1 -6.457 -4.8 a 6.16 6.16 0 0 1 -0.413 -2.248 a 12.57 12.57 0 0 1 2.149 -6.239 C 141.732 11.833 141.75 11.805 141.77 11.777 Z m 7.324 4.779 a 6.732 6.732 0 0 1 0.62 2.9 a 8.247 8.247 0 0 1 -2.188 5.537 a 8.238 8.238 0 0 1 -2.19 -5.538 a 6.764 6.764 0 0 1 0.615 -2.885 a 6.219 6.219 0 0 1 1.576 -2.116 A 6.173 6.173 0 0 1 149.094 16.556 Z M 147.521 1.569 l 0.006 -0.012 a 67.576 67.576 0 0 0 5.2 9.4 a 14.889 14.889 0 0 0 -5.2 2.289 a 14.9 14.9 0 0 0 -5.2 -2.289 a 66.394 66.394 0 0 0 4.017 -6.922 C 146.859 3.006 147.253 2.158 147.521 1.569 Z m -9.1 25.677 c -2.569 -1.127 -3.955 -3.916 -4.773 -7.228 a 65.293 65.293 0 0 0 -2.234 -8.727 c -0.362 -1.095 -0.683 -1.976 -0.913 -2.593 c -0.01 -0.026 -0.019 -0.053 -0.029 -0.078 A 67.426 67.426 0 0 0 140.8 11.591 a 13.217 13.217 0 0 0 -2.163 6.509 a 7.08 7.08 0 0 0 0.471 2.569 a 8.745 8.745 0 0 0 7.274 5.4 a 8.235 8.235 0 0 1 -5.073 1.787 A 6.748 6.748 0 0 1 138.423 27.246 Z m 22.974 -7.2 c -0.81 3.284 -2.2 6.073 -4.754 7.194 a 6.767 6.767 0 0 1 -2.9 0.621 a 8.23 8.23 0 0 1 -5.075 -1.788 a 8.747 8.747 0 0 0 7.28 -5.415 a 7.108 7.108 0 0 0 0.464 -2.559 a 13.212 13.212 0 0 0 -2.162 -6.508 a 66.689 66.689 0 0 0 7.654 -2.029 c 1.1 -0.362 1.977 -0.683 2.593 -0.913 l 0.08 -0.029 A 66.728 66.728 0 0 0 161.4 20.045 Z" stroke-linecap="round" />
</g>
</g>
</g>
</svg>